<svg width="100" height="50" viewBox="0 0 100 50" fill="none" xmlns="http://www.w3.org/2000/svg">
<path d="M63.7412 10.2515L59.9551 17.8403H50.374C46.2385 17.8405 43.1943 20.7944 43.1943 25.021C43.1945 29.2474 46.2387 32.1556 50.374 32.1558V32.1567H62.8877C61.7938 30.0978 61.1876 27.6911 61.1875 25.021C61.1875 16.2041 67.7779 10.2515 76.8213 10.2515H90.0664V17.8413H76.2754C72.1398 17.8413 69.0949 20.7493 69.0947 25.021C69.0947 29.2929 72.1397 32.1567 76.2754 32.1567H90.0664L90.123 39.7915H76.8213V39.7905C76.345 39.7905 75.8752 39.7723 75.4131 39.7397V39.7915H50.9189C41.8757 39.7914 35.2861 33.8378 35.2861 25.021C35.2863 16.2044 41.8758 10.2516 50.9189 10.2515H63.7412ZM20.3799 10.2085C21.9199 10.2085 23.0979 10.9371 23.9131 12.3931L38.9482 39.7896H30.3438L27.8984 35.2388H14.085L17.4365 28.9126H24.5469L19.5195 19.4009L8.74023 39.7905H0L15.0361 12.3931C15.8513 10.9372 17.0284 10.2085 18.5684 10.2085H20.3799ZM100 39.7905H92.0469V10.2515H100V39.7905Z" fill="url(#paint0_linear_528_245)"/>
<defs>
<linearGradient id="paint0_linear_528_245" x1="55" y1="1.84903" x2="77.9689" y2="15.2083" gradientUnits="userSpaceOnUse">
<stop stop-color="#0063ED"/>
<stop offset="0.9998" stop-color="#4995FF"/>
<stop offset="0.9999" stop-color="#0063ED"/>
</linearGradient>
</defs>
</svg>
